<mxfile host="app.diagrams.net" modified="2024-02-20T12:48:12.162Z" agent="Mozilla/5.0 (Windows NT 10.0; Win64; x64) AppleWebKit/537.36 (KHTML, like Gecko) Chrome/120.0.0.0 Safari/537.36" version="23.1.5" etag="r2cazgY89RdSodalib68" type="github">
  <diagram name="Trang-1" id="K1MJMGgC7xcN79Pl15Cc">
    <mxGraphModel>
      <root>
        <mxCell id="0" />
        <mxCell id="1" parent="0" />
      </root>
    </mxGraphModel>
  </diagram>
</mxfile>
